<svg viewBox="0 0 48 48" xml:space="preserve" xmlns="http://www.w3.org/2000/svg"><path d="M35 48H13c-2.757 0-5-2.243-5-5V5c0-2.757 2.243-5 5-5h22c2.757 0 5 2.243 5 5v38c0 2.757-2.243 5-5 5zM13 2c-1.654 0-3 1.346-3 3v38c0 1.654 1.346 3 3 3h22c1.654 0 3-1.346 3-3V5c0-1.654-1.346-3-3-3H13z" fill="#4d3025" class="fill-000000"></path><path d="M39 10H9a1 1 0 1 1 0-2h30a1 1 0 1 1 0 2zM39 40H9a1 1 0 1 1 0-2h30a1 1 0 1 1 0 2zM24 41a2 2 0 1 0 .001 4.001A2 2 0 0 0 24 41zM29 6H19a1 1 0 1 1 0-2h10a1 1 0 1 1 0 2z" fill="#4d3025" class="fill-000000"></path></svg>